<mxfile host="app.diagrams.net" modified="2023-05-21T23:46:42.074Z" agent="Mozilla/5.0 (Windows NT 10.0; Win64; x64) AppleWebKit/537.36 (KHTML, like Gecko) Chrome/113.0.0.0 Safari/537.36" etag="Z3VIfYap3ycZk976lnIi" version="21.3.2" type="github">
  <diagram name="Page-1" id="e7e014a7-5840-1c2e-5031-d8a46d1fe8dd">
    <mxGraphModel dx="1221" dy="743" grid="1" gridSize="10" guides="1" tooltips="1" connect="1" arrows="1" fold="1" page="1" pageScale="1" pageWidth="1169" pageHeight="826" background="none" math="0" shadow="0">
      <root>
        <mxCell id="0" />
        <mxCell id="1" parent="0" />
        <mxCell id="Bj3Egmkld3hF2YVUXplE-45" style="edgeStyle=orthogonalEdgeStyle;rounded=0;orthogonalLoop=1;jettySize=auto;html=1;" edge="1" parent="1" source="Bj3Egmkld3hF2YVUXplE-41">
          <mxGeometry relative="1" as="geometry">
            <mxPoint x="440" y="135" as="targetPoint" />
          </mxGeometry>
        </mxCell>
        <mxCell id="Bj3Egmkld3hF2YVUXplE-41" value="Driver" style="rounded=0;whiteSpace=wrap;html=1;" vertex="1" parent="1">
          <mxGeometry x="80" y="120" width="170" height="30" as="geometry" />
        </mxCell>
        <mxCell id="Bj3Egmkld3hF2YVUXplE-46" style="edgeStyle=orthogonalEdgeStyle;rounded=0;orthogonalLoop=1;jettySize=auto;html=1;exitX=1;exitY=0.5;exitDx=0;exitDy=0;" edge="1" parent="1" source="Bj3Egmkld3hF2YVUXplE-42">
          <mxGeometry relative="1" as="geometry">
            <mxPoint x="400" y="320" as="targetPoint" />
            <Array as="points">
              <mxPoint x="401" y="185" />
            </Array>
          </mxGeometry>
        </mxCell>
        <mxCell id="Bj3Egmkld3hF2YVUXplE-42" value="&amp;nbsp;ArrayList&amp;lt;Enemy&amp;gt; enemies ;&amp;nbsp;&lt;br&gt;&amp;nbsp;Player myPlayer;&amp;nbsp;&lt;br&gt;&amp;nbsp;ArrayList&amp;lt;Projectile&amp;gt; projects;&lt;br&gt;&amp;nbsp;Kernel blur;&amp;nbsp;&amp;nbsp;" style="rounded=0;whiteSpace=wrap;html=1;align=left;" vertex="1" parent="1">
          <mxGeometry x="80" y="150" width="170" height="70" as="geometry" />
        </mxCell>
        <mxCell id="Bj3Egmkld3hF2YVUXplE-44" value="&amp;nbsp;void setup ();&amp;nbsp;&lt;br&gt;&amp;nbsp;void draw ();&amp;nbsp;&lt;br&gt;&amp;nbsp;void reset ();&amp;nbsp;" style="rounded=0;whiteSpace=wrap;html=1;align=left;" vertex="1" parent="1">
          <mxGeometry x="80" y="220" width="170" height="60" as="geometry" />
        </mxCell>
        <mxCell id="Bj3Egmkld3hF2YVUXplE-48" value="Kernel" style="rounded=0;whiteSpace=wrap;html=1;" vertex="1" parent="1">
          <mxGeometry x="440" y="120" width="170" height="30" as="geometry" />
        </mxCell>
        <mxCell id="Bj3Egmkld3hF2YVUXplE-49" value="&amp;nbsp;float[][] Kernel;" style="rounded=0;whiteSpace=wrap;html=1;align=left;" vertex="1" parent="1">
          <mxGeometry x="440" y="150" width="170" height="30" as="geometry" />
        </mxCell>
        <mxCell id="Bj3Egmkld3hF2YVUXplE-50" value="&amp;nbsp;public Kernel ()&amp;nbsp;" style="rounded=0;whiteSpace=wrap;html=1;align=left;" vertex="1" parent="1">
          <mxGeometry x="440" y="180" width="170" height="60" as="geometry" />
        </mxCell>
      </root>
    </mxGraphModel>
  </diagram>
</mxfile>
